<?xml version="1.0" encoding="utf-8"?>
<!-- Generator: Adobe Illustrator 16.0.0, SVG Export Plug-In . SVG Version: 6.00 Build 0)  -->
<!DOCTYPE svg PUBLIC "-//W3C//DTD SVG 1.1//EN" "http://www.w3.org/Graphics/SVG/1.1/DTD/svg11.dtd">
<svg version="1.1" id="Layer_1" xmlns="http://www.w3.org/2000/svg" xmlns:xlink="http://www.w3.org/1999/xlink" x="0px" y="0px"
	 width="31.998px" height="8.997px" viewBox="0 0 31.998 8.997" enable-background="new 0 0 31.998 8.997" xml:space="preserve">
<g>
	<path fill="#DA4832" d="M2.241,0h4.485c1.233,0,2.271,1.006,2.271,2.24v4.516c0,1.233-1.038,2.24-2.271,2.24H2.241
		C1.008,8.997,0,7.99,0,6.756V2.24C0,1.006,1.008,0,2.241,0"/>
	<path fill="#FFDE00" d="M13.74,0h4.516c1.234,0,2.242,1.006,2.242,2.24v4.516c0,1.233-1.008,2.24-2.242,2.24H13.74
		c-1.234,0-2.24-1.007-2.24-2.24V2.24C11.5,1.006,12.505,0,13.74,0"/>
	<path fill="#198FCE" d="M25.238,0h4.518c1.234,0,2.242,1.006,2.242,2.24v4.516c0,1.233-1.008,2.24-2.242,2.24h-4.518
		C24.005,8.997,23,7.99,23,6.756V2.24C23,1.006,24.005,0,25.238,0"/>
</g>
</svg>
