<svg xmlns="http://www.w3.org/2000/svg" width="577.268" height="190.921" viewBox="138.839 215.649 577.268 190.921"><path d="M138.84 248.402h22.6v83.75h-22.6zm0-32.752h22.277v21.3H138.84zm104.4 39.547c-2.003-2.55-4.552-4.662-7.738-6.086-3.16-1.52-6.938-2.263-11.32-2.263-4.344 0-8.46.742-12.368 2.4-3.986 1.632-7.588 3.6-10.976 6.067v-6.912h-21.062v83.75h22.6v-59.028c2.152-2.237 4.604-4.084 7.315-5.423 2.705-1.288 5.748-2 8.882-2 3.004 0 5.033.917 6.216 2.783.507 1.157.917 2.555 1.274 4.324.403 1.775.58 3.966.58 6.5v52.845h22.57v-56.42c0-3.993-.488-7.777-1.5-11.354-1-3.538-2.456-6.646-4.47-9.182m48.154-33.398h-22.583v26.595H257.7v18.864h11.113v46.5c0 6.803 1.95 11.834 5.73 15.078 3.8 3.258 8.974 4.857 15.45 4.857l5.1-.064 4.044-.23c1.105-.084 2.3-.246 3.544-.428 1.23-.125 2.692-.455 4.467-.82V312.86l-5.533 1.347c-1.626.396-3.33.65-5.124.65-1.548 0-2.776-.254-3.707-.65-.93-.338-1.378-1.424-1.378-3.23V267.26h15.742v-18.864h-15.742V221.8zm67.3 90.2c-2.62 1.938-5.904 2.867-9.818 2.867-.546 0-1.054-.02-1.542-.02-2.386-.183-4.343-.734-5.872-1.7-1.847-1.137-3.328-2.588-4.408-4.446-1.08-1.85-1.86-3.974-2.328-6.334-.462-2.394-.858-4.805-1.14-7.283h48.496V284.25c0-5.514-.9-10.417-2.842-14.845-1.938-4.383-4.382-8.414-7.504-11.886-6.4-7.12-14.448-10.67-24.24-10.67h-.163c-6.358.026-11.795 1.184-16.28 3.55-4.565 2.374-8.396 5.573-11.387 9.52-3.017 3.934-5.176 8.557-6.574 13.8s-2.08 10.75-2.08 16.555c0 5.625.683 11.146 2.08 16.328 1.398 5.156 3.558 9.772 6.42 13.818 2.86 3.997 6.566 7.25 11.105 9.63 4.578 2.426 10 3.644 16.23 3.644h.486c7.836-.04 14.377-1.398 19.787-4.045 2.85-1.296 5.547-3.12 8.1-5.45 2.563-2.36 5.046-5.346 7.518-9.045l-16.698-10.527c-2.222 3.016-4.686 5.434-7.333 7.353m-23.656-38.865c.56-1.77 1.398-3.245 2.38-4.56 1.027-1.3 2.334-2.315 3.974-3 1.6-.74 3.557-1.1 5.942-1.1 4.077 0 7.315 1.28 9.722 4 2.263 2.562 3.563 5.95 3.9 10.222H333.75c.298-1.93.786-3.8 1.306-5.572m61.438-55.928h22.57v114.956h-22.57zm42.95 0h22.563v114.956h-22.563zM521.892 312c-2.652 1.938-5.885 2.867-9.785 2.867-.56 0-1.055-.02-1.566-.02-2.4-.183-4.33-.734-5.88-1.7-1.826-1.137-3.322-2.588-4.383-4.446-1.105-1.85-1.873-3.947-2.328-6.334-.467-2.394-.87-4.805-1.156-7.283h48.494V284.25c0-5.514-.922-10.417-2.828-14.845-1.95-4.383-4.414-8.414-7.535-11.886-6.398-7.12-14.424-10.67-24.242-10.67h-.143c-6.32.026-11.795 1.184-16.3 3.55-4.598 2.374-8.37 5.573-11.367 9.52-3.05 3.934-5.168 8.557-6.6 13.8-1.354 5.254-2.063 10.75-2.063 16.555 0 5.625.7 11.146 2.063 16.328 1.432 5.156 3.55 9.772 6.443 13.818 2.867 3.997 6.563 7.25 11.133 9.63 4.545 2.426 9.955 3.644 16.197 3.644h.48c7.822-.04 14.385-1.398 19.795-4.045 2.834-1.296 5.525-3.12 8.088-5.45 2.537-2.36 5.02-5.346 7.504-9.045l-16.697-10.527c-2.236 3.016-4.7 5.434-7.336 7.353m-23.642-38.865c.533-1.77 1.385-3.245 2.4-4.56 1.008-1.3 2.307-2.315 3.934-3 1.64-.74 3.55-1.1 5.955-1.1 4.084 0 7.336 1.28 9.742 4 2.234 2.562 3.574 5.95 3.86 10.222H496.9c.325-1.93.813-3.8 1.347-5.572m103.796 33.305a21.04 21.04 0 0 1-3.498 4.245c-1.3 1.256-2.705 2.244-4.313 3.005-1.658.78-3.492 1.177-5.67 1.177-5.162 0-8.816-1.938-10.957-5.893-2.38-4.23-3.55-10.43-3.55-18.68 0-8.336 1.17-14.6 3.55-18.7 2.074-3.953 5.656-5.9 10.656-5.9 2.172 0 4.033.312 5.496 1.02a14.9 14.9 0 0 1 3.953 2.692c1.145 1.17 2.068 2.458 2.932 4.058.84 1.52 1.596 3.14 2.3 4.916l19.02-7.42c-1.75-4.708-3.777-8.688-6.047-11.666-2.205-3.03-5.02-5.417-8.182-7.18-6.086-3.492-12.563-5.267-19.598-5.267-11.2 0-20.172 3.954-26.752 11.757-6.568 7.803-9.896 18.454-9.896 31.83 0 5.872.695 11.443 2.18 16.62 1.44 5.183 3.607 9.817 6.65 13.76 2.984 3.928 6.764 7.107 11.496 9.422 4.7 2.3 10.2 3.467 16.607 3.467 7.8 0 14.324-1.606 19.313-4.793 2.563-1.64 5.033-3.87 7.434-6.65 2.393-2.783 4.883-6.412 7.443-10.957l-17.465-9.87c-1.037 1.745-2.13 3.363-3.092 4.997m74.286-39.17v-18.864H660.6V221.8h-22.537v26.595h-11.14v18.864h11.14v46.5c0 6.803 1.926 11.834 5.684 15.078 3.805 3.258 8.975 4.857 15.45 4.857l5.117-.064 4.025-.23c1.145-.084 2.328-.246 3.563-.428 1.217-.125 2.666-.455 4.436-.82V312.86l-5.527 1.347c-1.62.436-3.303.65-5.098.65-1.535 0-2.795-.215-3.732-.65-.924-.338-1.38-1.424-1.38-3.23V267.26h15.737z"/><path fill="#da4732" d="M149.016 354.196h20.353c5.6 0 10.3 4.572 10.3 10.18v20.5c0 5.604-4.7 10.176-10.3 10.176h-20.353a10.2 10.2 0 0 1-10.176-10.176v-20.5a10.2 10.2 0 0 1 10.176-10.179z"/><path fill="#ffde00" d="M201.205 354.196h20.49c5.6 0 10.176 4.572 10.176 10.18v20.5c0 5.604-4.578 10.176-10.176 10.176h-20.49a10.2 10.2 0 0 1-10.176-10.176v-20.5a10.2 10.2 0 0 1 10.176-10.179z"/><path fill="#008fd4" d="M253.394 354.196H273.9c5.6 0 10.176 4.572 10.176 10.18v20.5c0 5.604-4.578 10.176-10.176 10.176h-20.496c-5.592 0-10.17-4.572-10.17-10.176v-20.5c0-5.607 4.577-10.18 10.17-10.18z"/><path d="M313.255 354.268h11.132c12.928 0 14.554 9.317 14.554 20.8 0 10.48-2.614 20.795-14.033 20.795h-11.652V354.27zm5.13 37.392h5.353c8.855 0 9.845-9.086 9.845-16.543 0-8.037-.52-16.654-9.845-16.654h-5.353v33.197zm30.647-10.834c0 4.778 0 11.998 5.995 11.998 4.655 0 5.3-4.892 5.3-7.22h4.896c0 3.315-2 11.062-10.48 11.062-7.634 0-10.84-5.3-10.84-16.017 0-7.803 1.515-16.828 11.126-16.828 9.545 0 10.423 8.322 10.423 15.02v1.984h-16.418zm11.294-3.845v-1.7c0-3.5-1.112-7.627-5.417-7.627-5.124 0-5.7 6.3-5.7 8.153v1.164h11.126zm23.874-3.205c0-3.96-1.054-6.112-4.604-6.112-1.573 0-5.065.403-5.065 4.772 0 3.668 3.843 4.37 7.692 5.65 3.784 1.28 7.62 2.62 7.62 8.793 0 6.586-4.252 9.785-10.07 9.785-10.6 0-10.716-7.86-10.716-11.06h4.896c0 3.785 1.047 7.22 5.82 7.22 1.574 0 5.183-.756 5.183-5.184 0-4.193-3.843-5.066-7.627-6.348-3.8-1.287-7.7-2.386-7.7-8.855 0-5.82 4.55-8.615 9.96-8.615 9.1 0 9.43 6.287 9.493 9.955l-4.9.002zm10.6-19.508h4.903v5.592H394.8v-5.592zm0 10.364h4.903v31.22H394.8v-31.22zm32.16 29.238c0 9.314-4.316 12.7-10.6 12.7-1.93 0-9.442 0-10.26-7.805h4.9c.234 2.85 2.452 3.96 5.02 3.96 6.28 0 6.054-4.838 6.054-7v-4.075h-.117c-1.046 2.618-3.96 4.192-7.048 4.192-9.083 0-9.67-11.478-9.67-15.612 0-8.44 2.275-16.42 10.195-16.42 3.375 0 6.112 2.328 6.75 4.77h.117v-3.96h4.668v29.238zm-16.607-13.63c0 5.065.754 11.42 5.656 11.42 5.294 0 6.347-5 6.347-11.42 0-6.056-1.053-12.226-6.294-12.226-4.54 0-5.7 4.775-5.7 12.226zm23.017-15.608h4.656v3.668h.117c1.28-2.854 4.54-4.48 7.568-4.48 8.213 0 8.213 6.23 8.213 9.896v22.136h-4.896V374.3c0-2.385-.168-6.286-4.6-6.286-2.627 0-6.18 1.74-6.18 6.286v21.552h-4.9v-31.22zm42.405 3.843h-4.54v-3.843h4.54v-3.674c0-4.715 2.035-7.16 6.756-7.16h3.55v4.195h-2.264c-2.105 0-3.146.813-3.146 2.965v3.674h5.357v3.843h-5.357v27.377h-4.896l-.001-27.377zm23.363-4.655c9.023 0 11.234 7.628 11.234 16.42 0 8.8-2.273 16.426-11.234 16.426-9.03 0-11.25-7.627-11.25-16.426 0-8.8 2.275-16.42 11.25-16.42zm6.1 16.42c0-6.757-.988-12.576-6.242-12.576-4.94 0-5.988 5.82-5.988 12.576 0 6.764.988 12.584 5.988 12.584 5.2 0 6.242-5.823 6.242-12.584zm10.017-15.608h4.9v4.662h.123c1.398-2.973 3.258-5.475 6.756-5.475 1 0 1.7.1 2.152.344v4.78c-.46-.06-1.047-.234-2.62-.234-2.445 0-6.412 2.22-6.412 7.396v19.748h-4.9l.002-31.22zm31.925-10.364h11.12c12.934 0 14.564 9.317 14.564 20.8 0 10.48-2.627 20.795-14.04 20.795H547.2V354.27zm5.125 37.392h5.355c8.852 0 9.846-9.086 9.846-16.543 0-8.037-.525-16.654-9.846-16.654h-5.355v33.197zm26.855-37.392h4.9v5.592h-4.9v-5.592zm0 10.364h4.9v31.22h-4.9v-31.22zm32.153 29.238c0 9.314-4.313 12.7-10.605 12.7-1.924 0-9.428 0-10.246-7.805h4.9c.234 2.85 2.445 3.96 5.008 3.96 6.295 0 6.066-4.838 6.066-7v-4.075h-.123c-1.047 2.618-3.96 4.192-7.05 4.192-9.084 0-9.662-11.478-9.662-15.612 0-8.44 2.273-16.42 10.182-16.42 3.38 0 6.125 2.328 6.764 4.77h.117v-3.96h4.662l-.003 29.238zm-16.6-13.63c0 5.065.754 11.42 5.645 11.42 5.307 0 6.354-5 6.354-11.42 0-6.056-1.047-12.226-6.287-12.226-4.556 0-5.712 4.775-5.712 12.226zm23.307-25.972h4.9v5.592h-4.9v-5.592zm0 10.364h4.9v31.22h-4.9v-31.22zm13.043-9.084h4.895v9.084h5.416v3.843h-5.416v20.034c0 2.505.64 3.498 3.2 3.498 1.047 0 1.633-.114 2.152-.174v4.02c-.637.116-1.918.353-3.96.353-5.066 0-6.3-2.1-6.3-6.18v-21.55h-4.54v-3.843h4.54l.002-9.084zm12.875 18.522c0-7.103 3.03-10.248 10.48-10.248 9.494 0 9.494 5.7 9.494 8.968v17.414c0 1.28 0 2.504 1.516 2.504.643 0 .93-.117 1.164-.293v3.498c-.354.06-1.627.293-2.85.293-1.873 0-4.2 0-4.436-4.025h-.1c-1.566 2.803-4.604 4.486-7.518 4.486-5.818 0-8.498-3.492-8.498-9.084 0-4.37 1.86-7.4 5.885-8.623l6.574-1.978c3.557-1.1 3.557-2.1 3.557-4.715 0-2.918-1.75-4.604-5-4.604-5.365 0-5.365 5.008-5.365 6.113v.293h-4.894zm15.084 4.77c-1.8 1.927-6.113 2.328-8.33 3.675-1.566 1-2.387 2.213-2.387 4.948 0 3.148 1.105 5.36 4.43 5.36 3.205 0 6.287-2.738 6.287-5.943v-8.04zm11.823-24.572h4.896v41.584h-4.896v-41.584z" fill="#6d6f71"/><path d="M699.693 221.76c2.758 0 5.45.706 8.074 2.123s4.672 3.44 6.143 6.076c1.463 2.632 2.197 5.378 2.197 8.236 0 2.833-.725 5.554-2.166 8.165s-3.47 4.64-6.078 6.084c-2.602 1.446-5.324 2.167-8.17 2.167s-5.568-.72-8.174-2.167-4.637-3.47-6.088-6.084-2.176-5.332-2.176-8.165c0-2.858.734-5.604 2.21-8.236 1.47-2.636 3.52-4.662 6.146-6.076s5.32-2.123 8.08-2.123zm0 2.72c-2.31 0-4.555.594-6.736 1.774-2.188 1.184-3.893 2.875-5.13 5.073s-1.848 4.488-1.848 6.866c0 2.368.602 4.636 1.813 6.805s2.9 3.858 5.086 5.072 4.445 1.818 6.814 1.818c2.363 0 4.637-.607 6.813-1.818s3.863-2.9 5.068-5.072 1.81-4.437 1.81-6.805c0-2.378-.613-4.667-1.838-6.866s-2.936-3.9-5.13-5.073c-2.188-1.18-4.432-1.774-6.723-1.774zm-7.205 22.793v-17.678h6.072c2.074 0 3.572.163 4.508.49.926.33 1.666.896 2.22 1.7.547.814.826 1.676.826 2.592 0 1.3-.467 2.417-1.387 3.374s-2.14 1.495-3.666 1.61c.625.26 1.12.573 1.502.937.713.698 1.582 1.862 2.615 3.503l2.152 3.463h-3.482l-1.566-2.79c-1.23-2.2-2.23-3.562-2.984-4.114-.523-.406-1.28-.61-2.283-.61h-1.678v7.51h-2.85zm2.85-9.948h3.46c1.656 0 2.785-.248 3.383-.742.607-.492.906-1.146.906-1.958a2.39 2.39 0 0 0-.434-1.403c-.29-.415-.69-.723-1.21-.926s-1.47-.304-2.863-.304h-3.242v5.333z"/></svg>